<?xml version="1.0" encoding="utf-8"?>
<!-- Generator: Adobe Illustrator 17.0.0, SVG Export Plug-In . SVG Version: 6.00 Build 0)  -->
<!DOCTYPE svg PUBLIC "-//W3C//DTD SVG 1.1//EN" "http://www.w3.org/Graphics/SVG/1.1/DTD/svg11.dtd">
<svg version="1.1" id="Layer_1" xmlns="http://www.w3.org/2000/svg" xmlns:xlink="http://www.w3.org/1999/xlink" x="0px" y="0px"
	 width="200px" height="200px" viewBox="0 0 200 200" enable-background="new 0 0 200 200" xml:space="preserve">
<path fill="#FFFFFF" d="M49.801,44H40.47C31.412,44,24,51.412,24,60.47v59.61C23.5,139.5,58.5,143.5,59,179h40.5l56.078,1.497
	c0.5-15.5,21.089-33.997,20.089-61.498l0-72.727c0-7.7-6.3-14-14-14h0c-7.7,0-13.889,6.3-13.889,14V45.75v-4.556
	c0-9.082-7.362-16.444-16.444-16.444h0c-9.106,0-16.556,7.45-16.556,16.556V41.5V37c0-9.075-7.425-16.5-16.5-16.5H98.25
	c-9.075,0-16.333,7.425-16.333,16.5v-1.584C81.917,26.35,74.567,19,65.5,19h0C56.425,19,49,26.425,49,35.5l0.5,9"/>
<g> 
	<g>
		<path fill="none" stroke="#8E8E8E" stroke-width="9" stroke-miterlimit="10" d="M116.222,182.556"/>
	</g>
</g>
<path fill="none" stroke="#555555" stroke-width="9" stroke-miterlimit="10" d="M59,183.5C58.5,148,23.5,140,24,120.581V60.97
	c0-9.059,7.412-16.47,16.47-16.47h9.331"/>
<path fill="none" stroke="#555555" stroke-width="9" stroke-miterlimit="10" d="M49.5,79L49,36c0-9.075,7.425-16.5,16.5-16.5h0
	c9.075,0,16.417,7.425,16.417,16.5v1.5"/>
<path fill="none" stroke="#555555" stroke-width="9" stroke-miterlimit="10" d="M81.917,37.5c0-9.075,7.258-16.5,16.333-16.5h0
	c9.075,0,16.528,7.425,16.528,16.5V42"/>
<path fill="none" stroke="#555555" stroke-width="9" stroke-miterlimit="10" d="M114.778,41.75c0-9.075,7.481-16.5,16.556-16.5h0
	c9.075,0,16.444,7.425,16.444,16.5v4.5"/>
<path fill="none" stroke="#555555" stroke-width="9" stroke-miterlimit="10" d="M147.778,46.773c0-7.7,6.189-14,13.889-14h0
	c7.7,0,14,6.3,14,14l0,72.727c1,27.5-19.589,45.998-20.089,61.498"/>
<line fill="none" stroke="#555555" stroke-width="9" stroke-miterlimit="10" x1="54.922" y1="178.94" x2="160.58" y2="178.894"/>
<line fill="none" stroke="#555555" stroke-width="9" stroke-miterlimit="10" x1="82.5" y1="59.5" x2="82.5" y2="77.5"/>
<line fill="none" stroke="#555555" stroke-width="9" stroke-miterlimit="10" x1="112" y1="60.5" x2="112" y2="78.5"/>
<line fill="none" stroke="#555555" stroke-width="9" stroke-miterlimit="10" x1="141.5" y1="67.5" x2="141.5" y2="85.5"/>
</svg>
