<?xml version="1.0" encoding="utf-8"?>
<!-- Generator: Adobe Illustrator 17.0.0, SVG Export Plug-In . SVG Version: 6.00 Build 0)  -->
<!DOCTYPE svg PUBLIC "-//W3C//DTD SVG 1.1//EN" "http://www.w3.org/Graphics/SVG/1.1/DTD/svg11.dtd">
<svg version="1.1" id="Layer_2" xmlns="http://www.w3.org/2000/svg" xmlns:xlink="http://www.w3.org/1999/xlink" x="0px" y="0px"
	 width="200px" height="245.667px" viewBox="0 0 200 245.667" enable-background="new 0 0 200 245.667" xml:space="preserve">
<path fill="#FFFFFF" d="M115.417,38.417c0-9.075,0-4.25,0-4.25c0-9.075-6.758-16.5-15.833-16.5h0
	c-8.824,0-15.852,7.02-16.247,15.751c-0.011,0.248,0,19.249,0,19.249c0-9.075-7.428-16.5-16.503-16.5h0
	c-9.075,0-16.5,7.425-16.5,16.5l0.801,38.5h-9.331c-9.059,0-16.47,7.412-16.47,16.47v59.61c-0.5,19.419,34.5,27.419,35,62.919
	l2.922-4.56l91.656,2.058c0.5-15.5,21.089-33.997,20.089-61.498l0-96.727c0-7.7-6.3-14-14-14h0c-3,0.227-13.25,0.277-13.25,7.977
	c0,0,0-20.75-1-28c-0.714-5.174-6.25-13.25-16-13.25C118.958,22.167,115.417,38.417,115.417,38.417z"/>
<g>
	<g>
		<path fill="none" stroke="#8E8E8E" stroke-width="9" stroke-miterlimit="10" d="M117.222,229.222"/>
	</g>
</g>
<path fill="none" stroke="#555555" stroke-width="9" stroke-miterlimit="10" d="M60,230.167c-0.5-35.5-35.5-43.5-35-62.919v-59.61
	c0-9.059,7.412-16.47,16.47-16.47h9.331"/>
<path fill="none" stroke="#555555" stroke-width="9" stroke-miterlimit="10" d="M50.5,125.667l-0.5-73c0-9.075,7.425-16.5,16.5-16.5 
	h0c9.075,0,16.503,7.425,16.503,16.5v51.5"/>
<path fill="none" stroke="#555555" stroke-width="9" stroke-miterlimit="10" d="M83.003,104.167c0-0.251-0.011-70.501,0-70.749
	c0.395-8.731,7.423-15.751,16.247-15.751h0c9.075,0,15.833,7.425,15.833,16.5v71.5"/>
<path fill="none" stroke="#555555" stroke-width="9" stroke-miterlimit="10" d="M115.083,38.417c0-9.075,7.292-16.375,15.25-16.5h0
	c9.075,0,16.444,7.425,16.444,16.5v69.5"/>
<path fill="none" stroke="#555555" stroke-width="9" stroke-miterlimit="10" d="M146.778,69.439c0-7.7,6.189-14,13.889-14h0
	c7.7,0,14,6.3,14,14l0,96.727c1,27.5-19.589,45.998-20.089,61.498"/>
<line fill="none" stroke="#555555" stroke-width="9" stroke-miterlimit="10" x1="62.922" y1="225.606" x2="159.58" y2="225.561"/>
<path fill="none" stroke="#555555" stroke-width="9" stroke-miterlimit="10" d="M83.003,106.167"/>
<path fill="none" stroke="#555555" stroke-width="9" stroke-miterlimit="10" d="M115.083,107.167"/>
<path fill="none" stroke="#555555" stroke-width="9" stroke-miterlimit="10" d="M140.5,114.167"/>
</svg>
