<svg xmlns="http://www.w3.org/2000/svg" width="200" height="245.667" viewBox="0 0 200 245.667"><path fill="#FFFFFF" d="M115.417 38.417v-4.25c0-9.075-6.758-16.5-15.833-16.5-8.824 0-15.852 7.02-16.247 15.751-.011.248 0 19.249 0 19.249 0-9.075-7.428-16.5-16.503-16.5s-16.5 7.425-16.5 16.5l.801 38.5h-9.331c-9.059 0-16.47 7.412-16.47 16.47v59.61c-.5 19.419 34.5 27.419 35 62.919l2.922-4.56 91.656 2.058c.5-15.5 21.089-33.997 20.089-61.498V69.439c0-7.7-6.3-14-14-14-3 .227-13.25.277-13.25 7.977 0 0 0-20.75-1-28-.714-5.174-6.25-13.25-16-13.25-11.793.001-15.334 16.251-15.334 16.251z"/><path fill="none" stroke="#555555" stroke-width="9" stroke-miterlimit="10" d="M60 230.167c-.5-35.5-35.5-43.5-35-62.919v-59.61c0-9.059 7.412-16.47 16.47-16.47h9.331"/><path fill="none" stroke="#555555" stroke-width="9" stroke-miterlimit="10" d="M50.5 125.667l-.5-73c0-9.075 7.425-16.5 16.5-16.5s16.503 7.425 16.503 16.5v51.5"/><path fill="none" stroke="#555555" stroke-width="9" stroke-miterlimit="10" d="M83.003 104.167c0-.251-.011-70.501 0-70.749.395-8.731 7.423-15.751 16.247-15.751 9.075 0 15.833 7.425 15.833 16.5v71.5M115.083 38.417c0-9.075 7.292-16.375 15.25-16.5 9.075 0 16.444 7.425 16.444 16.5v69.5M146.778 69.439c0-7.7 6.189-14 13.889-14 7.7 0 14 6.3 14 14v96.727c1 27.5-19.589 45.998-20.089 61.498M62.922 225.606l96.658-.045"/></svg>