<svg xmlns="http://www.w3.org/2000/svg" width="200" height="200" viewBox="0 0 200 200"><path fill="#FFFFFF" d="M49.801 44H40.47C31.412 44 24 51.412 24 60.47v59.61C23.5 139.5 58.5 143.5 59 179h40.5l56.078 1.497c.5-15.5 21.089-33.997 20.089-61.498V46.272c0-7.7-6.3-14-14-14s-13.889 6.3-13.889 14v-5.078c0-9.082-7.362-16.444-16.444-16.444-9.106 0-16.556 7.45-16.556 16.556v.194V37c0-9.075-7.425-16.5-16.5-16.5h-.028c-9.075 0-16.333 7.425-16.333 16.5v-1.584C81.917 26.35 74.567 19 65.5 19 56.425 19 49 26.425 49 35.5l.5 9"/><path fill="none" stroke="#555555" stroke-width="9" stroke-miterlimit="10" d="M59 183.5c-.5-35.5-35.5-43.5-35-62.919V60.97c0-9.059 7.412-16.47 16.47-16.47h9.331"/><path fill="none" stroke="#555555" stroke-width="9" stroke-miterlimit="10" d="M49.5 79L49 36c0-9.075 7.425-16.5 16.5-16.5S81.917 26.925 81.917 36v1.5M81.917 37.5c0-9.075 7.258-16.5 16.333-16.5s16.528 7.425 16.528 16.5V42M114.778 41.75c0-9.075 7.481-16.5 16.556-16.5 9.075 0 16.444 7.425 16.444 16.5v4.5M147.778 46.773c0-7.7 6.189-14 13.889-14 7.7 0 14 6.3 14 14V119.5c1 27.5-19.589 45.998-20.089 61.498M54.922 178.94l105.658-.046M82.5 59.5v18M112 60.5v18M141.5 67.5v18"/></svg>